<svg xmlns="http://www.w3.org/2000/svg" viewBox="0 0 546.98 230.84"><defs><style>.cls-1,.cls-2{fill:#fff;}.cls-2,.cls-6{stroke:#fff;stroke-miterlimit:10;}.cls-3,.cls-6{fill:none;}.cls-4{fill:#30519f;}.cls-5{fill:#e63f2d;}.cls-6{stroke-width:1.8px;}</style></defs><g id="Capa_2" data-name="Capa 2"><g id="Capa_1-2" data-name="Capa 1"><path class="cls-1" d="M382.86,79.85a22.5,22.5,0,0,1,0-5.44,13,13,0,0,1,1.85-5.36,9.63,9.63,0,0,1,4.71-3.66,14.35,14.35,0,0,1,5.84-.74,34.36,34.36,0,0,1,10.86,2.8,75.6,75.6,0,0,1,9.73,5.11,108.73,108.73,0,0,1,8.89,6.29A101,101,0,0,1,432.87,86a75.5,75.5,0,0,1,7.24,8.12,40.7,40.7,0,0,1,3,4.55,20.9,20.9,0,0,1,1.17,2.49,6.54,6.54,0,0,1,.47,2.68,6.82,6.82,0,0,0-1-2.42,19.84,19.84,0,0,0-1.54-2.13,50.32,50.32,0,0,0-3.57-3.88c-2.49-2.5-5.15-4.83-7.85-7.1s-5.48-4.44-8.34-6.49-5.73-4.09-8.72-5.91a79,79,0,0,0-9.13-5A35.65,35.65,0,0,0,395,67.75c-3.24-.49-6.58,0-8.7,2.48a12,12,0,0,0-2.33,4.42A30.54,30.54,0,0,0,382.86,79.85Z"/><path class="cls-1" d="M393.76,55.51a27.72,27.72,0,0,1,4-12.6,14.28,14.28,0,0,1,5.13-4.77,13.77,13.77,0,0,1,7-1.53,20.07,20.07,0,0,1,6.86,1.5,34.27,34.27,0,0,1,6.1,3.18,53.51,53.51,0,0,1,10.1,8.93,70.94,70.94,0,0,1,7.77,10.89,65.15,65.15,0,0,1,5.39,12.21,51.24,51.24,0,0,1,2.46,13.08,36.34,36.34,0,0,1-1.64,13.06c1.09-8.68-.66-17.22-3.76-25.09A73.29,73.29,0,0,0,437.43,63a70.62,70.62,0,0,0-7.51-10.17,51.25,51.25,0,0,0-9.23-8.45,24.32,24.32,0,0,0-11-4.7,11.42,11.42,0,0,0-5.67.77A12.23,12.23,0,0,0,401.45,42a14.9,14.9,0,0,0-2.16,2.12C396.61,47.23,395,51.36,393.76,55.51Z"/><path class="cls-1" d="M434.52,34.73a55,55,0,0,1,.88-6.1,25.45,25.45,0,0,1,1.94-6,8.29,8.29,0,0,1,2.13-2.77,4.43,4.43,0,0,1,1.88-.88,4.37,4.37,0,0,1,2.14.21,7.47,7.47,0,0,1,3,2.15,20.46,20.46,0,0,1,2,2.65,52.59,52.59,0,0,1,5.06,11.54,117.18,117.18,0,0,1,3,12c.75,4.06,1.35,8.15,1.75,12.25a121.36,121.36,0,0,1,.55,12.35c-.06,8.23-.89,16.56-3.49,24.36a133,133,0,0,0,.37-24.26c-.3-4-.63-8-1.19-12s-1.12-8-1.92-11.91-1.64-7.86-2.73-11.71a58.58,58.58,0,0,0-4.12-11,17.91,17.91,0,0,0-1.5-2.36,5.72,5.72,0,0,0-1.77-1.59,1.59,1.59,0,0,0-1.74.11A6.54,6.54,0,0,0,439,23.61a26.81,26.81,0,0,0-2.57,5.33C435.75,30.83,435.13,32.77,434.52,34.73Z"/><path class="cls-1" d="M477.11,34.07c.31-4,.8-7.89,1.2-11.8l.14-1.45.05-.7c0-.1,0-.24,0-.21v0a1.16,1.16,0,0,0,0,.18c.11.19-.16-.16.27.45a1.13,1.13,0,0,0,1.28.21,1.11,1.11,0,0,0,.4-.34.36.36,0,0,0,.07-.1s0,0,0,0c-.21.81-.41,1.84-.6,2.78L478.8,29c-.73,3.87-1.58,7.72-2.36,11.59l-2.53,11.56-2.72,11.52c-1,3.82-1.89,7.66-2.94,11.47-2,7.63-4.2,15.24-6.78,22.74,1-7.88,2.28-15.67,3.74-23.43.69-3.89,1.52-7.74,2.28-11.62L470,51.23c.92-3.84,1.8-7.68,2.75-11.52s1.92-7.66,3-11.46c.54-1.91,1.05-3.82,1.65-5.72.31-1,.57-1.86,1-2.92,0-.07.06-.15.14-.3a1,1,0,0,1,.11-.17,1.25,1.25,0,0,1,.44-.38,1.15,1.15,0,0,1,1.31.22c.45.61.17.29.29.48s0,.16.05.23v.14a2.82,2.82,0,0,1-.05.52l-.14.77c-.1.5-.2,1-.32,1.47C479.29,26.46,478.29,30.28,477.11,34.07Z"/><path class="cls-1" d="M514.44,53.08c.18-2.1.32-4.2.33-6.27a22.38,22.38,0,0,0-.65-6,6.07,6.07,0,0,0-1.18-2.37,2.57,2.57,0,0,0-1.93-.94,9.67,9.67,0,0,0-5,1.75,51.05,51.05,0,0,0-9.21,7.84,116.71,116.71,0,0,0-8.11,9.34c-2.59,3.22-5,6.57-7.36,10s-4.56,6.93-6.71,10.48a126.17,126.17,0,0,0-10.71,22.57c1.12-8.39,4.2-16.47,8-24.06a123.32,123.32,0,0,1,6.29-11.08c2.29-3.58,4.78-7,7.39-10.4a108.58,108.58,0,0,1,8.58-9.52c1.55-1.48,3.16-2.91,4.86-4.26a33.56,33.56,0,0,1,5.5-3.63,17.65,17.65,0,0,1,3.18-1.3,8.28,8.28,0,0,1,3.71-.31,5.52,5.52,0,0,1,1.92.71,5.42,5.42,0,0,1,1.46,1.4A8.08,8.08,0,0,1,516,40.37a22.16,22.16,0,0,1-.16,6.52A47.54,47.54,0,0,1,514.44,53.08Z"/><path class="cls-1" d="M526.76,73c.33-4.23.54-8.58-.63-12.44-.13-.49-.34-.93-.5-1.39a11,11,0,0,0-.68-1.27,6.82,6.82,0,0,0-1.82-2,8,8,0,0,0-2.38-1.17,10.77,10.77,0,0,0-2.74-.32c-3.82.11-7.73,1.59-11.34,3.44a67.36,67.36,0,0,0-10.4,6.69,91.6,91.6,0,0,0-9.42,8.2,102.79,102.79,0,0,0-8.4,9.29A74.21,74.21,0,0,0,466,103.88a46.75,46.75,0,0,1,3.57-12.38A68,68,0,0,1,476,80.19a82.52,82.52,0,0,1,8.2-10.09,88,88,0,0,1,9.69-8.71A65.47,65.47,0,0,1,505,54.48a39.79,39.79,0,0,1,6.26-2.33,20.41,20.41,0,0,1,6.83-.83,13.72,13.72,0,0,1,3.54.7,9.5,9.5,0,0,1,3.17,1.9A9.36,9.36,0,0,1,527,56.84a13.25,13.25,0,0,1,.66,1.63,12.65,12.65,0,0,1,.4,1.67C528.76,64.62,527.94,69,526.76,73Z"/><path class="cls-1" d="M524.82,96.53a40.68,40.68,0,0,0-.44-12.1,13.5,13.5,0,0,0-10.8-11.5,21.11,21.11,0,0,0-5.63-.38,36,36,0,0,0-11.31,2.63,53.23,53.23,0,0,0-10.51,5.45,62.8,62.8,0,0,0-9.28,7.48,52.16,52.16,0,0,0-13,20.2,38.24,38.24,0,0,1,3.64-11.9A48.42,48.42,0,0,1,474.58,86,55.31,55.31,0,0,1,484,77.51a54.29,54.29,0,0,1,11.2-6.06,38.47,38.47,0,0,1,12.62-2.68,25,25,0,0,1,6.59.76,16.24,16.24,0,0,1,6.07,3,14.54,14.54,0,0,1,4.16,5.3,18.71,18.71,0,0,1,1.67,6.29A33,33,0,0,1,524.82,96.53Z"/><path class="cls-1" d="M390.75,104.78a25.18,25.18,0,0,1-5.54-10.3,13.06,13.06,0,0,1,.07-6.24,12.12,12.12,0,0,1,.52-1.54,13.43,13.43,0,0,1,.79-1.44,12.14,12.14,0,0,1,2.07-2.5,16.35,16.35,0,0,1,2.55-1.94A18.43,18.43,0,0,1,394,79.45,26.67,26.67,0,0,1,400,77.88a41,41,0,0,1,12,.23,46.88,46.88,0,0,1,21.61,9.6A33.9,33.9,0,0,1,446,107.28,40.21,40.21,0,0,0,431.74,90.2c-1.53-1-3.11-2-4.73-2.88a53.08,53.08,0,0,0-15.65-5.27,39.08,39.08,0,0,0-10.89-.42,19,19,0,0,0-9.76,3.47A9.26,9.26,0,0,0,387.76,89a10.85,10.85,0,0,0-.62,5.13C387.45,97.8,389,101.36,390.75,104.78Z"/><path class="cls-1" d="M416,124.14a29.58,29.58,0,0,1-7.64-3.15A14.43,14.43,0,0,1,405,118.2a7,7,0,0,1-1.83-4.59,6.64,6.64,0,0,1,.55-2.59,8.63,8.63,0,0,1,1.31-2.11,14.71,14.71,0,0,1,3.44-3,31.08,31.08,0,0,1,7.82-3.52,45.14,45.14,0,0,1,16.61-1.81,27,27,0,0,1,8.22,1.91,13.71,13.71,0,0,1,3.63,2.28,7.08,7.08,0,0,1,2.19,3.55c-1.48-2.35-4-3.4-6.44-4a31,31,0,0,0-7.71-.63,59.68,59.68,0,0,0-15.33,2.49,34,34,0,0,0-7,2.91c-2.09,1.21-4,2.87-4.17,4.64s1.32,4,3.24,5.68A50.91,50.91,0,0,0,416,124.14Z"/><path class="cls-1" d="M434.52,130.09a22.24,22.24,0,0,1-2.11-9,19.29,19.29,0,0,1,2.06-9.38,13.35,13.35,0,0,1,3.17-4,9.52,9.52,0,0,1,4.81-2.23,7.31,7.31,0,0,1,5.1,1.12,7.71,7.71,0,0,1,2.91,3.78,10.4,10.4,0,0,0-3.75-2,5.94,5.94,0,0,0-3.58.17,10.09,10.09,0,0,0-5.12,5,26.33,26.33,0,0,0-2.47,7.73C435,124.12,434.82,127,434.52,130.09Z"/><path class="cls-1" d="M459,132a24.91,24.91,0,0,1-1.49-6.19,45.68,45.68,0,0,1-.33-6.16,58.73,58.73,0,0,1,.38-6.09c.11-1,.25-2,.33-2.94,0-.22,0-.45.05-.56s0,0,.08,0,.09.06.15.06a.5.5,0,0,0,.24,0c.28-.11.14-.16.08-.11a6.59,6.59,0,0,0-1.1,1,4.11,4.11,0,0,1,.22-1.73.91.91,0,0,1,.68-.56.93.93,0,0,1,.43,0,1.07,1.07,0,0,1,.3.17,2.22,2.22,0,0,1,.31.32,5.23,5.23,0,0,1,.49.91,16.15,16.15,0,0,1,.88,3.2,34,34,0,0,1,.48,6.25,42.73,42.73,0,0,1-.54,6.18A28.44,28.44,0,0,1,459,132Z"/><path class="cls-1" d="M506.27,117.77a31.78,31.78,0,0,0,3.39-8.69,12.68,12.68,0,0,0-1-8.4,14.31,14.31,0,0,0-6.15-5.61,24.55,24.55,0,0,0-8.41-2.45,31.8,31.8,0,0,0-17.49,2.81,26.62,26.62,0,0,0-7.35,5.24,29.8,29.8,0,0,0-5.39,7.64,23.19,23.19,0,0,1,3.89-8.9,24.78,24.78,0,0,1,7.36-6.72,30.74,30.74,0,0,1,19.46-4,25.78,25.78,0,0,1,9.73,3.09,16.59,16.59,0,0,1,7.16,7.62,13.08,13.08,0,0,1,1,5.2c0,.44,0,.88,0,1.31l-.23,1.27a11.8,11.8,0,0,1-.66,2.45A24.47,24.47,0,0,1,506.27,117.77Z"/><polygon class="cls-2" points="425.03 29.1 423.24 28.29 421.56 29.31 421.78 27.36 420.29 26.08 422.21 25.68 422.97 23.87 423.94 25.57 425.9 25.74 424.58 27.19 425.03 29.1"/><polygon class="cls-2" points="448.85 14.32 447.06 13.51 445.38 14.53 445.59 12.58 444.11 11.3 446.03 10.9 446.79 9.09 447.76 10.79 449.72 10.96 448.4 12.41 448.85 14.32"/><polygon class="cls-2" points="431.23 9.14 429.44 8.33 427.76 9.35 427.98 7.4 426.49 6.11 428.42 5.71 429.18 3.91 430.15 5.61 432.1 5.77 430.78 7.23 431.23 9.14"/><polygon class="cls-2" points="464.29 26.74 463.81 24.84 461.98 24.15 463.64 23.11 463.73 21.15 465.23 22.41 467.12 21.89 466.39 23.71 467.47 25.34 465.51 25.2 464.29 26.74"/><polygon class="cls-2" points="492.3 28.51 491.82 26.6 489.99 25.91 491.65 24.88 491.74 22.91 493.24 24.18 495.13 23.66 494.39 25.47 495.48 27.11 493.52 26.97 492.3 28.51"/><polygon class="cls-2" points="484.29 6.63 483.82 4.72 481.98 4.03 483.65 3 483.74 1.03 485.24 2.3 487.13 1.77 486.39 3.59 487.47 5.23 485.52 5.09 484.29 6.63"/><polygon class="cls-2" points="407.65 57.62 406.14 58.87 406.31 60.82 404.66 59.77 402.85 60.54 403.34 58.64 402.05 57.16 404.01 57.04 405.02 55.35 405.74 57.18 407.65 57.62"/><polygon class="cls-2" points="404.89 29.73 403.37 30.98 403.55 32.93 401.89 31.88 400.08 32.65 400.57 30.75 399.29 29.27 401.24 29.14 402.25 27.46 402.98 29.29 404.89 29.73"/><polygon class="cls-2" points="391.14 45.19 389.62 46.44 389.8 48.39 388.14 47.34 386.33 48.11 386.82 46.21 385.54 44.73 387.49 44.61 388.5 42.92 389.22 44.75 391.14 45.19"/><polygon class="cls-2" points="397.41 71.44 397.52 73.4 399.19 74.43 397.36 75.13 396.9 77.04 395.66 75.51 393.71 75.66 394.77 74.02 394.03 72.2 395.92 72.71 397.41 71.44"/><polygon class="cls-2" points="374.92 57.71 375.03 59.67 376.7 60.7 374.87 61.4 374.41 63.31 373.17 61.78 371.22 61.94 372.29 60.29 371.54 58.48 373.43 58.99 374.92 57.71"/><polygon class="cls-2" points="377.67 80.77 377.77 82.73 379.44 83.76 377.61 84.46 377.15 86.37 375.91 84.84 373.96 84.99 375.03 83.35 374.28 81.53 376.17 82.04 377.67 80.77"/><polygon class="cls-2" points="410.31 141.64 408.57 142.55 408.33 144.5 406.93 143.12 405 143.49 405.88 141.74 404.93 140.02 406.87 140.31 408.21 138.88 408.53 140.81 410.31 141.64"/><polygon class="cls-2" points="415.69 96.07 413.95 96.97 413.71 98.92 412.31 97.54 410.38 97.92 411.26 96.16 410.31 94.44 412.25 94.73 413.59 93.3 413.91 95.24 415.69 96.07"/><polygon class="cls-2" points="399.14 114.92 397.4 115.82 397.15 117.77 395.76 116.39 393.83 116.77 394.71 115.01 393.76 113.3 395.7 113.59 397.04 112.15 397.36 114.09 399.14 114.92"/><polygon class="cls-2" points="441.65 140.43 439.86 139.63 438.18 140.64 438.4 138.69 436.91 137.41 438.83 137.01 439.59 135.2 440.57 136.91 442.52 137.07 441.2 138.52 441.65 140.43"/><polygon class="cls-2" points="452.72 127.97 450.93 127.17 449.25 128.18 449.47 126.23 447.98 124.95 449.9 124.55 450.67 122.74 451.64 124.44 453.59 124.61 452.27 126.06 452.72 127.97"/><polygon class="cls-2" points="429.98 118.63 428.19 117.83 426.51 118.84 426.72 116.89 425.24 115.61 427.16 115.21 427.92 113.4 428.89 115.11 430.85 115.27 429.53 116.72 429.98 118.63"/><polygon class="cls-2" points="481.78 149.94 480.3 151.23 480.53 153.18 478.85 152.17 477.06 152.99 477.5 151.07 476.17 149.63 478.12 149.45 479.09 147.74 479.86 149.55 481.78 149.94"/><polygon class="cls-2" points="477.48 113.6 476 114.89 476.23 116.84 474.54 115.83 472.76 116.65 473.2 114.74 471.87 113.29 473.82 113.12 474.79 111.41 475.56 113.21 477.48 113.6"/><polygon class="cls-2" points="464.93 137.97 463.45 139.26 463.68 141.21 461.99 140.2 460.21 141.02 460.64 139.1 459.31 137.66 461.27 137.49 462.23 135.78 463 137.58 464.93 137.97"/><polygon class="cls-2" points="505.35 138.03 503.56 137.23 501.88 138.25 502.09 136.29 500.61 135.01 502.53 134.61 503.29 132.81 504.26 134.51 506.22 134.67 504.9 136.13 505.35 138.03"/><polygon class="cls-2" points="519.68 120.53 517.89 119.73 516.21 120.74 516.43 118.79 514.94 117.51 516.86 117.11 517.62 115.3 518.6 117.01 520.55 117.17 519.23 118.62 519.68 120.53"/><polygon class="cls-2" points="499.74 115.01 497.95 114.2 496.27 115.22 496.49 113.27 495 111.99 496.92 111.59 497.68 109.78 498.65 111.48 500.61 111.65 499.29 113.1 499.74 115.01"/><polygon class="cls-2" points="513.77 93.3 513.1 91.46 511.2 90.97 512.74 89.76 512.62 87.8 514.25 88.89 516.07 88.17 515.54 90.06 516.79 91.57 514.83 91.64 513.77 93.3"/><polygon class="cls-2" points="540.99 99.99 540.32 98.15 538.42 97.66 539.96 96.45 539.84 94.49 541.47 95.59 543.29 94.87 542.76 96.75 544.01 98.27 542.05 98.34 540.99 99.99"/><polygon class="cls-2" points="531 81.87 530.33 80.03 528.43 79.54 529.97 78.33 529.85 76.37 531.48 77.47 533.3 76.75 532.76 78.63 534.01 80.15 532.05 80.22 531 81.87"/><polygon class="cls-2" points="521.24 68.96 519.46 68.15 517.78 69.17 517.99 67.22 516.51 65.94 518.43 65.54 519.19 63.73 520.16 65.43 522.12 65.6 520.8 67.05 521.24 68.96"/><polygon class="cls-2" points="545.06 54.18 543.27 53.37 541.6 54.39 541.81 52.44 540.32 51.16 542.25 50.76 543 48.95 543.98 50.65 545.93 50.82 544.61 52.27 545.06 54.18"/><polygon class="cls-2" points="525.12 48.65 523.33 47.85 521.65 48.86 521.87 46.91 520.38 45.63 522.3 45.23 523.06 43.42 524.04 45.13 525.99 45.29 524.67 46.74 525.12 48.65"/><polygon class="cls-2" points="510.4 46.76 508.62 45.95 506.94 46.97 507.15 45.02 505.67 43.74 507.59 43.34 508.35 41.53 509.32 43.23 511.28 43.4 509.96 44.85 510.4 46.76"/><polygon class="cls-2" points="534.22 31.98 532.43 31.17 530.76 32.19 530.97 30.24 529.49 28.96 531.41 28.56 532.17 26.75 533.14 28.45 535.1 28.62 533.77 30.07 534.22 31.98"/><polygon class="cls-2" points="514.28 26.45 512.49 25.65 510.81 26.66 511.03 24.71 509.54 23.43 511.46 23.03 512.22 21.22 513.2 22.93 515.15 23.09 513.83 24.54 514.28 26.45"/><path class="cls-1" d="M12.19,159.27a21.35,21.35,0,0,1,0-5.24,12.66,12.66,0,0,1,1.78-5.18,9.33,9.33,0,0,1,4.55-3.55,13.94,13.94,0,0,1,5.65-.72,33.23,33.23,0,0,1,10.48,2.69A67.42,67.42,0,0,1,44,152.19a96,96,0,0,1,16.4,13,74,74,0,0,1,7,7.83,40.17,40.17,0,0,1,2.89,4.4,20.94,20.94,0,0,1,1.12,2.4,6.29,6.29,0,0,1,.44,2.59,6.23,6.23,0,0,0-1-2.32,19.83,19.83,0,0,0-1.49-2,46.74,46.74,0,0,0-3.45-3.73c-2.4-2.4-5-4.63-7.57-6.81a156.18,156.18,0,0,0-16.43-11.93,83.8,83.8,0,0,0-8.79-4.85,34.28,34.28,0,0,0-9.25-3c-3.11-.48-6.3,0-8.34,2.35a11.68,11.68,0,0,0-2.26,4.24A29.17,29.17,0,0,0,12.19,159.27Z"/><path class="cls-1" d="M22.68,135.83a26.73,26.73,0,0,1,3.8-12.16,13.73,13.73,0,0,1,4.95-4.61,13.25,13.25,0,0,1,6.76-1.48A19,19,0,0,1,44.82,119a33.19,33.19,0,0,1,5.89,3.06,51.37,51.37,0,0,1,9.74,8.61,67.72,67.72,0,0,1,7.49,10.5A62.76,62.76,0,0,1,73.13,153a49.34,49.34,0,0,1,2.35,12.61,34.82,34.82,0,0,1-1.62,12.58c1-8.37-.68-16.58-3.67-24.14a71.4,71.4,0,0,0-5.51-10.9,68.56,68.56,0,0,0-7.22-9.78,50.12,50.12,0,0,0-8.87-8.13A23.42,23.42,0,0,0,38,120.68a11,11,0,0,0-5.44.73,11.22,11.22,0,0,0-2.43,1.41,14.16,14.16,0,0,0-2.08,2C25.45,127.87,23.93,131.84,22.68,135.83Z"/><path class="cls-1" d="M61.94,115.82a51,51,0,0,1,.83-5.88,24.74,24.74,0,0,1,1.85-5.8,8.08,8.08,0,0,1,2.06-2.67,4.15,4.15,0,0,1,1.83-.86,4.07,4.07,0,0,1,2.09.2,7.35,7.35,0,0,1,2.9,2.08,20,20,0,0,1,1.93,2.56,50.2,50.2,0,0,1,4.89,11.12,109.39,109.39,0,0,1,2.93,11.6C84,132.09,84.56,136,84.94,140a118.16,118.16,0,0,1,.52,11.9c-.07,7.92-.89,16-3.42,23.46a129.52,129.52,0,0,0,.3-23.37c-.3-3.87-.62-7.73-1.16-11.57s-1.08-7.68-1.85-11.47-1.58-7.57-2.62-11.27a57.07,57.07,0,0,0-4-10.64,18.11,18.11,0,0,0-1.43-2.26,5.3,5.3,0,0,0-1.68-1.52,1.46,1.46,0,0,0-1.63.09,6.29,6.29,0,0,0-1.7,1.8,25.47,25.47,0,0,0-2.48,5.11C63.13,112.06,62.54,113.94,61.94,115.82Z"/><path class="cls-1" d="M103,115.18c.28-3.81.75-7.6,1.12-11.37l.13-1.4.05-.66v-.16a.58.58,0,0,0,0,.18c.1.19-.16-.16.27.45a1.11,1.11,0,0,0,1.27.21,1.17,1.17,0,0,0,.41-.34.33.33,0,0,0,.06-.1s0,0,0,0c-.2.77-.39,1.77-.57,2.67l-1.1,5.58c-.7,3.73-1.51,7.44-2.26,11.17L100,132.58l-2.63,11.1c-.94,3.68-1.82,7.38-2.84,11-2,7.35-4.07,14.67-6.58,21.89C88.79,169,90,161.51,91.44,154c.65-3.74,1.46-7.46,2.19-11.19l2.42-11.14c.88-3.7,1.73-7.41,2.65-11.1s1.86-7.38,2.91-11c.53-1.83,1-3.67,1.6-5.5.3-.93.56-1.79,1-2.82a2.49,2.49,0,0,1,.13-.29,1,1,0,0,1,.11-.17,1.25,1.25,0,0,1,.44-.38,1.15,1.15,0,0,1,1.31.22c.44.61.17.29.29.48a1.85,1.85,0,0,1,0,.23v.14a4.13,4.13,0,0,1,0,.51l-.14.74c-.1.48-.19,1-.31,1.42C105.09,107.86,104.11,111.53,103,115.18Z"/><path class="cls-1" d="M138.91,133.49c.17-2,.29-4,.3-6a21.89,21.89,0,0,0-.64-5.79,5.87,5.87,0,0,0-1.14-2.26,2.42,2.42,0,0,0-1.82-.88,9.17,9.17,0,0,0-4.81,1.68,48.79,48.79,0,0,0-8.85,7.56,111.51,111.51,0,0,0-7.8,9c-2.5,3.11-4.85,6.33-7.1,9.63s-4.39,6.67-6.46,10.09a122.21,122.21,0,0,0-10.37,21.7c1-8.09,4-15.88,7.62-23.19a116.94,116.94,0,0,1,6-10.69c2.21-3.45,4.6-6.78,7.12-10a103.86,103.86,0,0,1,8.27-9.17c1.5-1.43,3-2.81,4.69-4.11a31.62,31.62,0,0,1,5.31-3.49,16.75,16.75,0,0,1,3.07-1.26,8.09,8.09,0,0,1,3.6-.3,4.87,4.87,0,0,1,3.28,2.06,7.75,7.75,0,0,1,1.25,3.25,21.61,21.61,0,0,1-.17,6.29A45.32,45.32,0,0,1,138.91,133.49Z"/><path class="cls-1" d="M150.78,152.72c.3-4.08.49-8.27-.65-12-.12-.46-.32-.89-.48-1.33a11.78,11.78,0,0,0-.65-1.22,6.63,6.63,0,0,0-1.75-1.93,7.3,7.3,0,0,0-2.28-1.1,9.87,9.87,0,0,0-2.63-.31,26.29,26.29,0,0,0-10.88,3.32,64.77,64.77,0,0,0-10,6.44,90.35,90.35,0,0,0-9.06,7.88,100.85,100.85,0,0,0-8.09,8.94,71.68,71.68,0,0,0-12,21,44.48,44.48,0,0,1,3.4-11.94,66.37,66.37,0,0,1,6.12-10.91,79.2,79.2,0,0,1,7.9-9.73,84.75,84.75,0,0,1,9.34-8.41,63.39,63.39,0,0,1,10.77-6.65,39.65,39.65,0,0,1,6-2.25,20.07,20.07,0,0,1,6.6-.79,13.22,13.22,0,0,1,3.42.68,9.1,9.1,0,0,1,3.07,1.85A8.94,8.94,0,0,1,151,137.1a11.79,11.79,0,0,1,1,3.18A28.07,28.07,0,0,1,150.78,152.72Z"/><path class="cls-1" d="M148.91,175.34a39.24,39.24,0,0,0-.46-11.64,12.95,12.95,0,0,0-10.38-11,20.72,20.72,0,0,0-5.41-.36,34.83,34.83,0,0,0-10.86,2.53,51.1,51.1,0,0,0-10.11,5.25,59.85,59.85,0,0,0-8.94,7.18,50.55,50.55,0,0,0-12.53,19.41,36.79,36.79,0,0,1,3.47-11.48,47.1,47.1,0,0,1,6.79-10.07,53.76,53.76,0,0,1,9.07-8.17,53.13,53.13,0,0,1,10.8-5.85,37.17,37.17,0,0,1,12.18-2.57,24.63,24.63,0,0,1,6.37.73,15.83,15.83,0,0,1,5.86,2.92,14.05,14.05,0,0,1,4,5.12,18.2,18.2,0,0,1,1.6,6.09A31.66,31.66,0,0,1,148.91,175.34Z"/><path class="cls-1" d="M19.78,183.29a24.24,24.24,0,0,1-5.37-9.92,12.56,12.56,0,0,1,.06-6,10.08,10.08,0,0,1,.51-1.49,11.59,11.59,0,0,1,.75-1.39,12.05,12.05,0,0,1,2-2.43,16,16,0,0,1,2.47-1.88,18,18,0,0,1,2.73-1.32,25.49,25.49,0,0,1,5.74-1.52,39.52,39.52,0,0,1,11.6.22A45,45,0,0,1,61.1,166.8,32.55,32.55,0,0,1,73,185.69a38.89,38.89,0,0,0-13.73-16.4,46.21,46.21,0,0,0-9.4-5,46.68,46.68,0,0,0-10.21-2.85,37.58,37.58,0,0,0-10.47-.41,18.36,18.36,0,0,0-9.37,3.31A8.91,8.91,0,0,0,17,168.14a10.48,10.48,0,0,0-.61,4.92C16.63,176.55,18.13,180,19.78,183.29Z"/><path class="cls-1" d="M44.07,201.93a28.22,28.22,0,0,1-7.37-3,13.94,13.94,0,0,1-3.27-2.69,6.84,6.84,0,0,1-1.78-4.45,6.5,6.5,0,0,1,.53-2.52,8.44,8.44,0,0,1,1.27-2.05,14,14,0,0,1,3.33-2.91,30.31,30.31,0,0,1,7.54-3.41,43.46,43.46,0,0,1,16-1.73A26.13,26.13,0,0,1,68.27,181a13.14,13.14,0,0,1,3.49,2.21,6.8,6.8,0,0,1,2.1,3.43c-1.44-2.25-3.83-3.25-6.21-3.78a30.09,30.09,0,0,0-7.41-.59,57.81,57.81,0,0,0-14.75,2.42,32,32,0,0,0-6.71,2.79c-2,1.15-3.8,2.74-4,4.41s1.24,3.83,3.08,5.43A50.26,50.26,0,0,0,44.07,201.93Z"/><path class="cls-1" d="M61.94,207.66A21.18,21.18,0,0,1,59.85,199a18.49,18.49,0,0,1,2-9.06,12.87,12.87,0,0,1,3.07-3.86,9.17,9.17,0,0,1,4.66-2.16,7.13,7.13,0,0,1,5,1.11,7.39,7.39,0,0,1,2.78,3.67,10.14,10.14,0,0,0-3.62-1.9,5.8,5.8,0,0,0-3.42.19,9.8,9.8,0,0,0-4.89,4.83A25.76,25.76,0,0,0,63,199.23C62.48,201.91,62.26,204.7,61.94,207.66Z"/><path class="cls-1" d="M85.51,209.52a24.07,24.07,0,0,1-1.49-6,43.76,43.76,0,0,1-.33-5.93,54.2,54.2,0,0,1,.38-5.85l.34-2.83c0-.21,0-.44.06-.53s0,0,.09,0a.37.37,0,0,0,.14.06.44.44,0,0,0,.25,0c.29-.11.15-.16.09-.12a6,6,0,0,0-1.07,1,3.86,3.86,0,0,1,.19-1.68.88.88,0,0,1,.67-.54.8.8,0,0,1,.43,0,1.24,1.24,0,0,1,.3.17,2.76,2.76,0,0,1,.3.31,5.38,5.38,0,0,1,.48.89,14.46,14.46,0,0,1,.87,3.08,31.64,31.64,0,0,1,.48,6,39.49,39.49,0,0,1-.53,5.94A27.07,27.07,0,0,1,85.51,209.52Z"/><path class="cls-1" d="M131,195.8a30.7,30.7,0,0,0,3.24-8.39,12.27,12.27,0,0,0-1-8A14.06,14.06,0,0,0,127.4,174a23.86,23.86,0,0,0-8.08-2.34,30.74,30.74,0,0,0-16.8,2.68,25.5,25.5,0,0,0-7.08,5,28.39,28.39,0,0,0-5.22,7.33,22.11,22.11,0,0,1,3.72-8.59,23.84,23.84,0,0,1,7.09-6.5,29.51,29.51,0,0,1,18.78-3.91,24.83,24.83,0,0,1,9.39,3,15.87,15.87,0,0,1,6.92,7.37,12.77,12.77,0,0,1,.95,5c0,.43,0,.85,0,1.27l-.22,1.23a12,12,0,0,1-.65,2.36A23.34,23.34,0,0,1,131,195.8Z"/><polygon class="cls-2" points="52.8 110.4 51.08 109.62 49.46 110.6 49.67 108.72 48.23 107.48 50.09 107.1 50.82 105.36 51.76 107 53.64 107.16 52.37 108.56 52.8 110.4"/><polygon class="cls-2" points="75.74 96.16 74.02 95.38 72.4 96.36 72.61 94.48 71.17 93.25 73.03 92.87 73.76 91.12 74.69 92.76 76.58 92.92 75.31 94.32 75.74 96.16"/><polygon class="cls-2" points="58.77 91.17 57.05 90.39 55.43 91.37 55.64 89.49 54.21 88.26 56.06 87.88 56.79 86.13 57.73 87.77 59.61 87.93 58.34 89.33 58.77 91.17"/><polygon class="cls-2" points="90.61 108.12 90.15 106.29 88.39 105.63 89.99 104.63 90.07 102.74 91.52 103.95 93.34 103.45 92.63 105.2 93.67 106.78 91.79 106.65 90.61 108.12"/><polygon class="cls-2" points="117.58 109.83 117.13 107.99 115.36 107.33 116.96 106.33 117.05 104.44 118.49 105.66 120.31 105.15 119.61 106.9 120.65 108.48 118.76 108.35 117.58 109.83"/><polygon class="cls-2" points="109.88 88.75 109.42 86.92 107.65 86.25 109.26 85.25 109.34 83.37 110.79 84.58 112.61 84.08 111.9 85.83 112.94 87.41 111.06 87.28 109.88 88.75"/><polygon class="cls-2" points="36.06 137.87 34.61 139.07 34.77 140.95 33.18 139.94 31.44 140.68 31.91 138.85 30.67 137.42 32.56 137.3 33.53 135.68 34.22 137.44 36.06 137.87"/><polygon class="cls-2" points="33.4 111 31.94 112.2 32.11 114.08 30.51 113.07 28.77 113.81 29.25 111.98 28 110.56 29.89 110.44 30.86 108.82 31.56 110.58 33.4 111"/><polygon class="cls-2" points="20.16 125.89 18.7 127.1 18.86 128.98 17.27 127.97 15.53 128.71 16 126.88 14.76 125.45 16.65 125.33 17.62 123.71 18.31 125.47 20.16 125.89"/><polygon class="cls-2" points="26.2 151.18 26.3 153.06 27.91 154.05 26.15 154.73 25.7 156.56 24.52 155.1 22.63 155.24 23.66 153.66 22.94 151.91 24.77 152.4 26.2 151.18"/><polygon class="cls-2" points="4.54 137.96 4.64 139.84 6.25 140.83 4.49 141.51 4.04 143.34 2.85 141.88 0.97 142.02 2 140.44 1.28 138.69 3.1 139.18 4.54 137.96"/><polygon class="cls-2" points="7.18 160.16 7.28 162.05 8.89 163.04 7.13 163.71 6.68 165.55 5.5 164.08 3.61 164.23 4.64 162.64 3.92 160.9 5.74 161.39 7.18 160.16"/><polygon class="cls-2" points="38.62 218.79 36.94 219.66 36.71 221.54 35.36 220.21 33.51 220.57 34.35 218.88 33.44 217.22 35.31 217.5 36.6 216.12 36.91 217.99 38.62 218.79"/><polygon class="cls-2" points="43.8 174.89 42.13 175.77 41.89 177.64 40.55 176.32 38.69 176.67 39.53 174.98 38.62 173.33 40.49 173.61 41.78 172.23 42.09 174.09 43.8 174.89"/><polygon class="cls-2" points="27.86 193.05 26.19 193.92 25.95 195.8 24.61 194.47 22.75 194.83 23.59 193.14 22.68 191.49 24.55 191.77 25.84 190.39 26.15 192.25 27.86 193.05"/><polygon class="cls-2" points="68.81 217.62 67.08 216.84 65.47 217.82 65.67 215.94 64.24 214.71 66.09 214.33 66.83 212.59 67.76 214.22 69.65 214.38 68.38 215.78 68.81 217.62"/><polygon class="cls-2" points="79.47 205.62 77.75 204.84 76.13 205.82 76.34 203.94 74.91 202.71 76.76 202.33 77.49 200.58 78.43 202.22 80.31 202.38 79.04 203.78 79.47 205.62"/><polygon class="cls-2" points="57.56 196.63 55.84 195.85 54.22 196.83 54.43 194.95 53 193.72 54.85 193.33 55.58 191.59 56.52 193.23 58.4 193.39 57.13 194.79 57.56 196.63"/><polygon class="cls-2" points="107.46 226.78 106.03 228.02 106.25 229.9 104.63 228.93 102.91 229.71 103.33 227.87 102.05 226.48 103.94 226.31 104.86 224.66 105.61 226.4 107.46 226.78"/><polygon class="cls-2" points="103.31 191.78 101.89 193.02 102.11 194.9 100.49 193.93 98.77 194.72 99.19 192.88 97.91 191.48 99.79 191.31 100.72 189.67 101.46 191.41 103.31 191.78"/><polygon class="cls-2" points="91.22 215.25 89.8 216.49 90.02 218.37 88.4 217.4 86.68 218.19 87.1 216.34 85.82 214.95 87.7 214.78 88.63 213.14 89.37 214.88 91.22 215.25"/><polygon class="cls-2" points="130.16 215.31 128.43 214.54 126.82 215.52 127.02 213.64 125.59 212.4 127.44 212.02 128.17 210.28 129.11 211.92 130.99 212.08 129.72 213.47 130.16 215.31"/><polygon class="cls-2" points="143.96 198.46 142.24 197.68 140.62 198.66 140.83 196.78 139.4 195.55 141.25 195.16 141.98 193.42 142.91 195.06 144.8 195.22 143.53 196.62 143.96 198.46"/><polygon class="cls-2" points="124.75 193.14 123.03 192.36 121.41 193.34 121.62 191.46 120.19 190.23 122.04 189.84 122.77 188.1 123.71 189.74 125.59 189.9 124.32 191.3 124.75 193.14"/><polygon class="cls-2" points="138.27 172.23 137.62 170.46 135.79 169.98 137.28 168.82 137.16 166.93 138.73 167.99 140.49 167.29 139.97 169.11 141.17 170.57 139.28 170.63 138.27 172.23"/><polygon class="cls-2" points="164.49 178.68 163.84 176.9 162.01 176.43 163.49 175.26 163.38 173.38 164.94 174.43 166.7 173.74 166.19 175.56 167.39 177.01 165.5 177.08 164.49 178.68"/><polygon class="cls-2" points="154.86 161.22 154.21 159.45 152.38 158.98 153.87 157.81 153.75 155.93 155.32 156.98 157.08 156.29 156.56 158.1 157.76 159.56 155.88 159.63 154.86 161.22"/><polygon class="cls-2" points="145.47 148.79 143.74 148.01 142.13 148.99 142.33 147.11 140.9 145.88 142.75 145.49 143.48 143.75 144.42 145.39 146.3 145.55 145.03 146.95 145.47 148.79"/><polygon class="cls-2" points="168.4 134.55 166.68 133.77 165.06 134.75 165.27 132.88 163.84 131.64 165.69 131.26 166.42 129.51 167.36 131.16 169.24 131.31 167.97 132.71 168.4 134.55"/><polygon class="cls-2" points="149.2 129.23 147.47 128.45 145.86 129.43 146.06 127.55 144.63 126.32 146.48 125.93 147.22 124.19 148.15 125.83 150.04 125.99 148.77 127.39 149.2 129.23"/><polygon class="cls-2" points="135.03 127.4 133.3 126.63 131.69 127.61 131.89 125.73 130.46 124.49 132.31 124.11 133.04 122.37 133.98 124.01 135.87 124.17 134.59 125.56 135.03 127.4"/><polygon class="cls-2" points="157.97 113.17 156.24 112.39 154.63 113.37 154.83 111.49 153.4 110.26 155.25 109.87 155.99 108.13 156.92 109.77 158.81 109.93 157.53 111.33 157.97 113.17"/><polygon class="cls-2" points="138.76 107.85 137.04 107.07 135.42 108.05 135.63 106.17 134.2 104.94 136.05 104.55 136.78 102.81 137.72 104.45 139.6 104.61 138.33 106.01 138.76 107.85"/><path class="cls-3" d="M261,133.79a18.15,18.15,0,0,1-3.86.23A11.62,11.62,0,0,0,261,133.79Z"/><path class="cls-3" d="M236,89.65c.59-.2,1.58-1.11,2.41-1.36-.83.23-1.84,1.17-2.44,1.37-1.06.36-4.4,2.42-3.1,3.72l0,0C231.6,92.06,234.93,90,236,89.65Z"/><path class="cls-3" d="M282.66,86.25c2.94-.7,5-2.21,8.27-2.11-.23-2.87-2.78-.19-6.62.38C282.84,84.74,282,84.15,282.66,86.25Z"/><path class="cls-3" d="M309.4,74.62c-.81-.16-2.9-1.33-3.37.52A8.81,8.81,0,0,1,311.18,77C311.71,76.15,312.57,75.42,309.4,74.62Z"/><path class="cls-3" d="M238.4,88.29c-.83.25-1.82,1.16-2.41,1.36-1.06.36-4.39,2.41-3.11,3.71h0c2.83-1.58,3.94-3.13,6.72-4.48A.87.87,0,0,0,238.4,88.29Z"/><path class="cls-3" d="M252.79,76.75c1.29-.9,2.72-1.91,4.11-2.72a25.61,25.61,0,0,1,3.61-1.09c0-2.24-1.55-2-5.16-.13C252,75.55,252.18,76.18,252.79,76.75Z"/><path class="cls-3" d="M260.47,88.13c.6.17,2.61-2.07,3.08-2.21,1,0,.78-.69,2.53-1-.76-2.18-2.07-.55-5.42,1.21A1.26,1.26,0,0,0,260.47,88.13Z"/><path class="cls-3" d="M278.87,72.21c.18.36,2.51-1,3.15-1,.32,0,4.66-.57,4.66-.57.33-1.47-.81-.92-4.71-.8C281.79,69.83,277,70.81,278.87,72.21Z"/><path class="cls-3" d="M240.45,151.16c-2.63,3.23-1.29,4.38.15,5.05.45-2.43-.32-3.1,3.32-7.63C242.37,147.13,242.25,149,240.45,151.16Z"/><path class="cls-3" d="M306.91,88.48l2.42,1c.71-1.2-.06-1.68-2.72-2.09-3.31-.51-3.71-.61-3.21.81C303.82,88.18,304,87.94,306.91,88.48Z"/><path class="cls-4" d="M304.1,96.93c4.4.48,5.79-1.48,7.7-11.17,2.55-12.93,2.06-18.07-2.22-18.07-2.55,0-4.88,6.24-6.34,12.46C301.66,86.8,299.91,96.49,304.1,96.93Zm5.3-22.31c3.17.8,2.31,1.53,1.78,2.35A8.81,8.81,0,0,0,306,75.14C306.5,73.29,308.59,74.46,309.4,74.62Zm-2.79,12.77c2.66.41,3.43.89,2.72,2.09l-2.42-1c-3-.54-3.09-.3-3.51-.28C302.9,86.78,303.3,86.88,306.61,87.39Z"/><path class="cls-4" d="M289.69,99.45c4.85-1.26,6.22-2.29,2-19.93s-7-25.14-12.71-22.15c-3.35,1.76-3.44,10.76-1.59,20S284.62,100.77,289.69,99.45Zm1.24-15.31c-3.24-.1-5.33,1.41-8.27,2.11-.65-2.1.18-1.51,1.65-1.73C288.15,84,290.7,81.27,290.93,84.14Zm-9-14.32c3.9-.12,5-.67,4.71.8,0,0-4.34.55-4.66.57-.64,0-3,1.38-3.15,1C277,70.81,281.79,69.83,282,69.82Z"/><path class="cls-4" d="M255.21,82c3.86,4.89,6.4,10.15,6.83,16.47.24,3.42,1.26,6.71,4.28,8.9a4,4,0,0,0,3.33.95,3.13,3.13,0,0,0,2-2.56c1.57-6.56,1.56-13.29-2.79-18.7l-8.73-18.78c-1.23-3.75-5.9-8.41-9-8.4a5.44,5.44,0,0,0-1.8.29c-2.38.85-3.65,3.36-2.8,6.42C248.13,72.41,251.54,77.33,255.21,82Zm10.87,3c-1.75.26-1.54,1-2.53,1-.47.14-2.48,2.38-3.08,2.21a1.26,1.26,0,0,1,.19-1.95C264,84.42,265.32,82.79,266.08,85ZM255.35,72.81c3.61-1.85,5.16-2.11,5.16.13A25.61,25.61,0,0,0,256.9,74c-1.39.81-2.82,1.82-4.11,2.72C252.18,76.18,252,75.55,255.35,72.81Z"/><path class="cls-4" d="M285.67,108.73c1.32-3,4.55-5.53,8.43-6.78-3.89,1.24-7.13,3.8-8.46,6.79a8.82,8.82,0,0,1-5,4.93A8.86,8.86,0,0,0,285.67,108.73Z"/><path class="cls-4" d="M318.7,153.72c-.34-7.14,1.25-7.18-5.6-7.05-2,0-7.79-.2-7.75-.8.06-.29.81-.65,1.92-1,2.4-.82,6.56-1.77,9.1-2.52,1.56-.47,1.89-1.22,1.79-2.85-.24-3.93-1.77-7.51-1.54-11.49-13.4-.41-29.88,28.22-57.36,23.54a15.47,15.47,0,0,1-2.87,1.45,4.58,4.58,0,0,1-4.62-.39c-2.53-2-5.12-4.05-7.54-6.19-5.63-5-10.4-5.88-13.61-4.85a5.91,5.91,0,0,0-3.11,9.3c3.61,4.78,25.12,9.82,31,17.61,1.07,1.44,3.3,2.52,5,3.16,2,.76,3.37,1,4.36.56,1.28-.54,1.92-2.09,2.43-4.75a2.22,2.22,0,0,1,1.16-1.7,1.44,1.44,0,0,1,.66-.12c0,2,0,4,0,6,0,1.44.57,2.29,2.13,2.33,5,.13,21.41,4.84,28.29-.39C316.57,162.81,319.39,168.22,318.7,153.72Zm-78.1,2.49c-1.44-.67-2.78-1.82-.15-5.05,1.8-2.21,1.92-4,3.47-2.58C240.28,153.11,241.05,153.78,240.6,156.21Z"/><path class="cls-4" d="M261,133.79c14.14-3,35.31-28.09,50.38-26.11-4.48-6.53-11.56-7.55-17.24-5.73-3.88,1.25-7.11,3.8-8.43,6.78a8.86,8.86,0,0,1-5,4.94,6.47,6.47,0,0,1-6.06-.85c-3.46-2.53-7.05-3.15-10.06-2a9.21,9.21,0,0,0-3.68,2.66c-.8,1.16-1.58-.13-2.1-1.36-3-7.1-5.28-10.23-11.08-16.34-2.29-2.41-7.57-7.15-9.17-12-.45-1.36-4.24-8.34-9.82-6.42l-.53.22c-3.57,1.59-1.78,15,21.88,43.23,2.82,3.21,5.07,7.86,7.08,13.27A18.15,18.15,0,0,0,261,133.79ZM232.88,93.37h0l0,0c-1.3-1.3,2-3.36,3.1-3.72.6-.2,1.61-1.14,2.44-1.37a.87.87,0,0,1,1.2.6C236.82,90.24,235.71,91.79,232.88,93.37Zm11.91,17.11c-1.1-.76,2.82-4,3.71-5,1.36-1.53,3.69-3,5,0C248,107,246.84,111.9,244.79,110.48Z"/><path class="cls-4" d="M316.35,142.34h0c-2.54.75-6.7,1.7-9.1,2.52C309.68,144,313.82,143.09,316.35,142.34Z"/><path class="cls-3" d="M248.5,105.49c-.89,1-4.81,4.23-3.71,5,2.05,1.42,3.16-3.46,8.67-5C252.19,102.46,249.86,104,248.5,105.49Z"/><path class="cls-5" d="M305.66,118.28c9.72-4.41,10.7-3.33,5.68-10.6-15.07-2-36.24,23.07-50.38,26.11a11.62,11.62,0,0,1-3.86.23,26.39,26.39,0,0,1,.44,3c.49,1.81,1.93.64,9.95,0-10,7.88-8.88,2.94-8.23,14.52,27.48,4.68,44-24,57.36-23.54C316.83,115.87,317.63,117.66,305.66,118.28Z"/><path class="cls-6" d="M278.06,126.4h14.18a.72.72,0,0,1,.72.72V138.8a.72.72,0,0,1-.72.72H277.31a.72.72,0,0,1-.72-.72v-9.22a.72.72,0,0,1,.72-.72h12.35a.73.73,0,0,1,.73.72v7a.73.73,0,0,1-.73.72h-10a.72.72,0,0,1-.72-.72v-4.83a.73.73,0,0,1,.72-.73h7.85a.73.73,0,0,1,.72.73v2.66a.72.72,0,0,1-.73.72l-5.68,0a.71.71,0,0,1-.71-.72v-.89a.67.67,0,0,1,.67-.67h1.41"/></g></g></svg>