<svg xmlns="http://www.w3.org/2000/svg" viewBox="0 0 249.62 49.18"><defs><style>.cls-1{fill:#fff;}</style></defs><g id="Capa_2" data-name="Capa 2"><g id="Capa_1-2" data-name="Capa 1"><path class="cls-1" d="M7.56,49.18c-2.48,0-6.58-4.09-2-4.09,5.6,0,7.87-11,8.82-21.22C12.25,28.11,9,33.5,6.27,33.5,4.52,33.5,0,31.19,0,22.37c0-2.84.52-7.28.52-18,0-2.1-1.43-4,1.3-4,1.44,0,4.76,1.71,4.76,5,0,4.69-2.31,26.63-.24,26.63s6-7.28,8.36-12c.39-6.33.35-11.72.35-12.88,0-.94-.59-2.34,1.26-2.34S20.2,6.37,20.2,9.56C20.2,9.56,22.16,49.18,7.56,49.18Z"/><path class="cls-1" d="M47.64,20.13C47.46,20.93,44,33,41.06,34a1.15,1.15,0,0,1-.56.11c-3.29,0-4.1-6.83-4.34-6.83s-1.61,5.32-4.38,5.32-5-1.85-5-6.72c0-4.58,2.52-12.07,7.71-12.07,3.6,0,6.16,0,6.16,5.11,0,.49-1.26.91-1.26.14s-.25-3.64-1.54-3.64c-3.43,0-6.48,6.23-6.48,12.67,0,1.29.14,3.39,1.19,3.39s3.26-7.31,3.26-9.13c0-.7,0-2,2.1-2s3,1,3,1.71v.56c.1,2.38-.11,9.1,1,9.1.73,0,4.58-11.06,4.83-11.83S47.81,19.25,47.64,20.13Z"/><path class="cls-1" d="M78.68,22.33c-.24.7-2.27,9.28-7.77,9.28-4.87,0-7.77-4.38-7.77-7.88,0-4.55,2.31-8.75,3.71-10s4.8-1.05,5.88-.52,1.82,2.1,1.82,4.06c0,3.67-1.75,5.6-4,5.6A10.09,10.09,0,0,1,68,22.4c-.28,3.47,1.86,7,3.78,7,4.45,0,6-6.79,6.23-7.38S78.93,21.6,78.68,22.33ZM68,21.67c4.45,1.89,5.15-5.85,3.36-5.85S68.39,18.62,68,21.67Z"/><path class="cls-1" d="M94.68,15.51c0,2.9-.74,5.7-2.49,5.7s-3.08-.7-3.08-1.47.6-3.78.6-3.78S85.64,24.05,85.36,29c.39,2.55.91,3.22.91,3.81,0,1-5.74,2.7-5.74-10.81,0-3.57.46-8.79,1.65-8.79,2.34,0,3.43,1.23,3.43,2.7s-.7,3.18-.7,5.84c0,1.3,0,2.42.1,3.4.91-4.59,3.86-12.46,5.47-12.46C92.4,12.71,94.68,12.6,94.68,15.51Z"/><path class="cls-1" d="M114.77,22.33c-.25.7-2.28,9.28-7.78,9.28-4.86,0-7.77-4.38-7.77-7.88,0-4.55,2.31-8.75,3.71-10s4.8-1.05,5.88-.52,1.82,2.1,1.82,4.06c0,3.67-1.75,5.6-4,5.6a10.09,10.09,0,0,1-2.56-.46c-.28,3.47,1.86,7,3.78,7,4.45,0,6-6.79,6.24-7.38S115,21.6,114.77,22.33Zm-10.65-.66c4.45,1.89,5.15-5.85,3.36-5.85S104.47,18.62,104.12,21.67Z"/><path class="cls-1" d="M122.36,13.2c2.55,0,6.09-.32,6.09,2.34s-3.36,5.95-4,5.95.84-4.93.28-4.93c-2.69,0-5.14,6.82-3.08,6.82.91,0,6.27-.07,6.27,3s-5.64,8.12-7.7,8.12-3.4-1.82-2.49-1.82c1.68,0,6.51-5.18,6.51-6.44,0,0-7.52,1.16-7.52-4.51C116.76,18.69,119.84,13.2,122.36,13.2Z"/><path class="cls-1" d="M157.88,32.59c-2,0-4-1.3-2-1.3,4.34,0,3.71-15.78,2.52-15.78-2.2,0-4.44,9.1-5.18,12.42-.07,1.75-.1,3.61-.1,5.46,0,9,2.66,11,.91,11-7.14,0-5.71-31.12-3.15-31.12,1.33,0,3.11,0,3.11,1.44,0,.77-.24,3.6-.49,7.49.81-3.4,1.93-7,2.8-7.91,1.16-1.16,4.62-.49,5.08-.18C165.79,17.05,165.58,32.59,157.88,32.59Z"/><path class="cls-1" d="M191.1,20.13c-.18.8-3.61,12.84-6.58,13.89a1.15,1.15,0,0,1-.56.11c-3.29,0-4.1-6.83-4.34-6.83s-1.61,5.32-4.38,5.32-5-1.85-5-6.72c0-4.58,2.52-12.07,7.7-12.07,3.6,0,6.16,0,6.16,5.11,0,.49-1.26.91-1.26.14s-.25-3.64-1.54-3.64c-3.43,0-6.48,6.23-6.48,12.67,0,1.29.14,3.39,1.19,3.39s3.26-7.31,3.26-9.13c0-.7,0-2,2.1-2s3,1,3,1.71v.56c.1,2.38-.11,9.1,1.05,9.1.73,0,4.58-11.06,4.83-11.83S191.27,19.25,191.1,20.13Z"/><path class="cls-1" d="M206.18,15.51c0,2.9-.73,5.7-2.48,5.7s-3.08-.7-3.08-1.47.59-3.78.59-3.78-4.06,8.09-4.34,13.06c.39,2.55.91,3.22.91,3.81,0,1-5.74,2.7-5.74-10.81,0-3.57.46-8.79,1.65-8.79,2.34,0,3.43,1.23,3.43,2.7s-.7,3.18-.7,5.84c0,1.3,0,2.42.1,3.4.91-4.59,3.85-12.46,5.46-12.46C203.91,12.71,206.18,12.6,206.18,15.51Z"/><path class="cls-1" d="M233.45,9a85.83,85.83,0,0,1-14.74,2.31c-.87,4.93-1.85,10.74-1.85,14.17,0,9.31,3,10.08.94,10.08s-5.25-4.09-5.25-11.72a80.44,80.44,0,0,1,1.37-12.29,30.84,30.84,0,0,1-4.27-.17A16.93,16.93,0,0,1,202,8.09c-.74-.49-.35-1,.14-.84A78.56,78.56,0,0,0,214.48,8.4l.21-1.05a54.44,54.44,0,0,0,.94-5.63c0-3.36,4.27-1.19,4.27,1.43,0,.7-.21,2.14-.49,4.1l-.21,1.19c6,0,11.59-.28,14.32-.28C234.53,8.19,234.32,8.72,233.45,9Z"/><path class="cls-1" d="M240.27,22.33c-.24.7-2.27,9.28-7.77,9.28-4.86,0-7.77-4.38-7.77-7.88,0-4.55,2.31-8.75,3.71-10s4.8-1.05,5.88-.52,1.82,2.1,1.82,4.06c0,3.67-1.75,5.6-4,5.6a10.09,10.09,0,0,1-2.56-.46c-.28,3.47,1.86,7,3.78,7,4.45,0,6-6.79,6.23-7.38S240.52,21.6,240.27,22.33Zm-10.64-.66c4.45,1.89,5.15-5.85,3.36-5.85S230,18.62,229.63,21.67Z"/><path class="cls-1" d="M249.62,30.38c0,1.16-2.31,2-3.89,2s-2.06-1.5-2.1-2.69a2.81,2.81,0,0,1,2.63-2.94A3.41,3.41,0,0,1,249.62,30.38Z"/></g></g></svg>